/* XPM */
static char *new_2x[] = {
/* columns rows colors chars-per-pixel */
"18 18 3 1 ",
"  c black",
". c #808080",
"X c none",
/* pixels */
"XXXXXXXXXXXXXXXXXX",
"XXXXXXXXXXXXXXXXXX",
"XXXXXXXX  XXXXXXXX",
"XXXXXXXX  XXXXXXXX",
"XXXXXXXX  XXXXXXXX",
"XXXXXXXX  XXXXXXXX",
"XXXXXXXX  XXXXXXXX",
"XXXXXXXX  XXXXXXXX",
"XX              XX",
"XX              XX",
"XXXXXXXX  XXXXXXXX",
"XXXXXXXX  XXXXXXXX",
"XXXXXXXX  XXXXXXXX",
"XXXXXXXX  XXXXXXXX",
"XXXXXXXX  XXXXXXXX",
"XXXXXXXX  XXXXXXXX",
"XXXXXXXXXXXXXXXXXX",
"XXXXXXXXXXXXXXXXXX"
};
