/* XPM */
static char *rith_arrow_2x[] = {
/* columns rows colors chars-per-pixel */
"18 18 3 1 ",
"  c black",
". c #808080",
"X c none",
/* pixels */
"XXXXXXXXXXXXXXXXXX",
"XXXXXXXXXXXXXXXXXX",
"XXXX    XXXXXXXXXX",
"XXXXX    XXXXXXXXX",
"XXXXXX    XXXXXXXX",
"XXXXXXX    XXXXXXX",
"XXXXXXXX    XXXXXX",
"XXXXXXXXX    XXXXX",
"XXXXXXXXXX    XXXX",
"XXXXXXXXXX    XXXX",
"XXXXXXXXX    XXXXX",
"XXXXXXXX    XXXXXX",
"XXXXXXX    XXXXXXX",
"XXXXXX    XXXXXXXX",
"XXXXX    XXXXXXXXX",
"XXXX    XXXXXXXXXX",
"XXXXXXXXXXXXXXXXXX",
"XXXXXXXXXXXXXXXXXX"
};
