<?xml version="1.0" encoding="UTF-8" standalone="no"?>
<!-- Created with Inkscape (http://www.inkscape.org/) -->

<svg
   width="197.48482mm"
   height="143.92513mm"
   viewBox="0 0 197.48482 143.92513"
   version="1.1"
   id="svg20513"
   xml:space="preserve"
   xmlns="http://www.w3.org/2000/svg"
   xmlns:svg="http://www.w3.org/2000/svg"><defs
     id="defs20510" /><g
     id="layer1"
     transform="translate(-4.5827361,-58.949187)"><path
       style="fill:#89b4fa;fill-opacity:1;stroke:#89b4fa;stroke-width:1.497;stroke-opacity:1"
       d="m 94.017148,59.92345 c -6.377605,9.560266 -15.923885,19.068624 -22.109717,28.163035 -2.384142,3.3611 -5.24258,9.596935 0.9183,10.047279 2.496314,0.101944 5.266826,-0.914724 7.922302,-1.906815 3.613784,-1.350116 7.295356,-2.882217 10.069812,-4.394375 20.970195,-11.429357 36.633425,-21.307893 55.606765,-30.875067 0.6448,-0.325135 1.00773,0.255604 0.54328,0.747744 -24.98381,14.205084 -51.014046,37.01806 -75.405079,43.824649 -7.763198,1.87747 -9.137649,-2.77467 -6.223151,-9.365139 6.693197,-12.972248 16.397401,-23.590544 25.20423,-33.694502 0.994017,-1.143709 4.222343,-3.508846 3.473258,-2.546809 z"
       id="path1724" /><circle
       id="path4795"
       style="fill:#000000;stroke:#e8c29c;stroke-width:0.264583"
       cx="59.352425"
       cy="105.26632"
       r="0.019263774" /><path
       style="fill:#e64553;fill-opacity:1;stroke:#f38ba8;stroke-width:1.497;stroke-opacity:1"
       d="m 58.185475,105.38286 c -17.666308,16.06227 -47.425774,36.89224 -52.7893047,57.47622 -0.3218289,2.03632 0.4937741,3.4921 1.900678,4.47886 1.1823738,0.82928 2.7217617,1.00786 3.9665047,0.87089 1.893386,-0.20835 3.704475,-0.91351 5.495687,-1.77712 6.999528,-3.37475 13.757614,-7.96343 19.696405,-11.99542 1.100635,-0.74725 2.279921,-1.38701 3.313544,-2.2245 4.650355,-3.76795 11.419081,-7.42206 13.958479,-12.89763 0.597119,-1.28754 -0.820303,-0.99408 -1.596936,-0.40649 -1.812987,1.37167 -3.618252,2.75483 -5.470718,4.07269 -7.942365,5.45424 -16.623324,11.03147 -24.814958,14.98887 -2.433068,1.16073 -4.914873,2.43649 -7.58537,2.80468 -8.4778549,-1.27565 3.341449,-14.2396 5.602073,-16.8533 11.408671,-13.41747 25.162527,-26.6755 35.870141,-34.90291 0.983965,-0.75605 3.2182,-2.12846 4.104906,-3.55403 0.517573,-0.83211 -0.995927,-0.67652 -1.651131,-0.0808 -2e-6,0 2e-6,-1e-5 0,-1e-5 z"
       id="path11495" /><path
       style="fill:#e3c3a1;fill-opacity:1;stroke:#e8c29c;stroke-width:0.397;stroke-dasharray:none;stroke-opacity:1"
       d="m 30.281714,177.80355 c -0.363718,0.55803 -0.598893,0.60109 -1.044613,0.6023 -0.361141,9.8e-4 -1.124799,-0.41158 -0.612754,-1.17146 3.394135,-5.0369 7.371179,-9.58498 11.30251,-14.11311 2.56685,-2.95651 4.692497,-5.5079 7.139186,-8.29325 1.599516,-1.82092 3.379451,-3.53451 5.160725,-4.70713 0.73656,-0.48488 1.621689,-0.84727 2.409532,-0.81287 2.426343,0.17611 -5.402965,8.01025 -5.848978,8.36086 -0.604634,0.47795 -1.123342,1.09677 -1.727997,1.61651 -5.468189,5.54993 -10.957512,10.10644 -15.398437,16.40216 -0.482929,0.68965 -1.379174,2.11599 -1.379174,2.11599 z"
       id="path16677" /><path
       style="fill:#e3c3a1;fill-opacity:1;stroke:#e8c29c;stroke-width:0.397;stroke-dasharray:none;stroke-opacity:1"
       d="m 131.46166,108.90646 c 7.49339,-5.2539 12.68572,-1.23033 11.4106,7.14753 -0.95385,6.26707 -6.22022,10.80679 -9.82184,15.25044 -1.05952,1.30722 0.60908,1.7438 1.49561,1.02478 9.16777,-7.43551 16.95578,-16.66557 15.86394,-27.82204 -0.19246,-1.96655 -0.15754,-5.354313 -4.70712,-5.415657 -5.46921,-0.07374 -12.06631,5.446007 -15.99447,9.624997 -0.76177,0.81042 0.77647,0.87483 1.75328,0.18995 z"
       id="path14145" /><path
       style="fill:#ff708a;fill-opacity:1;stroke:#f38ba8;stroke-width:0.813818;stroke-opacity:1"
       d="m 108.75434,671.86714 c 0,-1.943 14.0738,-21.52911 22.53705,-31.36418 7.0606,-8.20506 32.8273,-38.1791 41.34183,-48.09237 14.31788,-16.66997 24.65022,-25.63013 31.02548,-26.90519 9.54438,-1.90887 1.29501,8.43341 -37.58926,47.12584 -30.95594,30.80321 -43.70525,45.04076 -50.6507,56.56319 -2.41086,3.99959 -6.6644,5.70544 -6.6644,2.67271 z"
       id="path83234"
       transform="scale(0.26458333)" /><path
       style="fill:#ff708a;fill-opacity:1;stroke:#f38ba8;stroke-width:0.143622;stroke-dasharray:none;stroke-opacity:1"
       d="m 109.07318,674.60416 c -2.11962,-0.91918 -2.71743,-2.88978 -1.49272,-4.92047 1.87718,-3.11253 10.02397,-14.22916 15.4461,-21.07686 6.18835,-7.81536 11.45936,-14.09202 24.39722,-29.05195 4.6872,-5.41978 11.90477,-13.81029 16.03903,-18.64558 14.63687,-17.11878 18.50578,-21.40567 23.27963,-25.79466 8.38687,-7.71074 13.89754,-11.0675 18.74535,-11.4185 1.74196,-0.12613 2.61119,0.22585 3.14756,1.27453 0.49601,0.96977 0.29232,2.04763 -0.82157,4.34742 -1.88975,3.90169 -6.6166,9.93963 -14.23884,18.18827 -2.73571,2.96055 -6.84146,7.04164 -13.92283,13.83922 -6.84902,6.57454 -22.73992,22.04343 -28.71945,27.95674 -16.27953,16.09927 -25.76555,27.27873 -34.11016,40.19952 -2.44029,3.77855 -3.05766,4.52407 -4.17616,5.04303 -0.94261,0.43736 -2.63654,0.46546 -3.57316,0.0593 z m 2.40545,-1.05819 c 1.51653,-0.5674 3.37507,-2.44724 4.93326,-4.98978 4.91369,-8.01782 13.57353,-18.27849 28.47354,-33.73706 2.66319,-2.76302 13.96884,-14.19672 25.12366,-25.40822 11.15482,-11.2115 21.82261,-22.08004 23.70618,-24.1523 12.92342,-14.21809 15.97574,-18.97232 12.98337,-20.22261 -0.83552,-0.34911 -2.44071,-0.25262 -4.13155,0.24835 -6.04758,1.79179 -15.4804,9.90887 -27.70274,23.83863 -7.86044,8.9585 -45.47613,52.84494 -48.10977,56.12995 -5.73481,7.15313 -13.33508,17.63299 -16.66194,22.97481 -1.50682,2.41944 -1.79371,3.00746 -1.79371,3.67646 0,0.87914 0.39978,1.5937 1.03507,1.85007 0.63896,0.25786 0.98981,0.22378 2.14463,-0.2083 z"
       id="path83236"
       transform="scale(0.26458333)" /><path
       style="fill:#ff708a;fill-opacity:1;stroke:#f38ba8;stroke-width:0.039245;stroke-dasharray:none;stroke-opacity:1"
       d="m 35.520017,632.57415 c -4.798607,-0.95412 -9.051899,-4.03158 -11.051729,-7.99647 -1.759954,-3.4893 -1.772768,-6.72817 -0.04889,-12.35631 5.250567,-17.14209 14.895562,-34.82394 29.661359,-54.37718 16.277839,-21.55552 39.199978,-45.34802 72.071253,-74.80784 2.80573,-2.51454 5.19615,-4.5719 5.31204,-4.5719 0.11589,0 -2.85854,3.10483 -6.60984,6.89962 -20.20147,20.43568 -41.745072,44.11995 -60.181668,66.1616 -9.953832,11.90018 -16.488317,21.31968 -20.685456,29.81821 -2.973533,6.02092 -4.511079,11.24119 -4.497415,15.2696 0.01574,4.63969 2.053737,8.5988 5.657759,10.99101 2.532532,1.68101 7.592675,3.24614 9.502989,2.93935 8.49519,-1.36431 15.446674,-4.03611 32.653628,-12.55038 20.376483,-10.08261 42.646803,-23.17774 69.796153,-41.04071 15.07359,-9.9177 23.39123,-15.74379 35.53343,-24.88939 3.60192,-2.71299 6.59664,-4.88501 6.65495,-4.8267 0.17131,0.17131 -2.5149,4.47488 -4.18077,6.69797 -6.1947,8.26683 -13.18495,14.39266 -32.11292,28.14181 -4.43352,3.22048 -10.02836,7.38295 -12.43297,9.24994 -2.40462,1.86699 -5.54019,4.14669 -6.96793,5.066 -1.42775,0.91931 -7.94481,5.24977 -14.48237,9.62324 -30.512792,20.41235 -44.719241,29.0641 -62.303034,37.94262 -10.009517,5.05408 -15.481976,7.18332 -21.394297,8.32417 -3.050394,0.5886 -7.710194,0.726 -9.894276,0.29174 z"
       id="path83238"
       transform="scale(0.26458333)" /><path
       style="fill:#ff708a;fill-opacity:1;stroke:#f38ba8;stroke-width:0.039245;stroke-dasharray:none;stroke-opacity:1"
       d="m 34.93298,638.18593 c -6.801351,-1.23418 -12.470512,-5.20296 -15.348977,-10.74531 -1.581821,-3.04572 -2.052924,-5.06457 -2.052988,-8.79783 -5e-5,-2.90654 0.08646,-3.42953 1.152592,-6.96793 9.666706,-32.08295 33.198999,-65.43721 74.596727,-105.73211 20.524406,-19.97763 34.108736,-32.02846 77.638866,-68.87435 25.00554,-21.16583 34.80594,-29.61183 44.54009,-38.38466 3.94254,-3.55319 5.86512,-4.63956 8.59908,-4.85902 1.42919,-0.11472 1.9624,-0.031 2.99849,0.47051 2.37996,1.15211 2.76493,3.48929 1.01824,6.18169 -2.03874,3.14259 -4.99966,5.82535 -12.34255,11.18304 -5.42997,3.96194 -12.91094,9.8749 -20.90379,16.52236 -34.90954,29.03345 -75.55483,69.11478 -109.221949,107.70647 -19.616586,22.48595 -24.20315,28.1472 -30.738958,37.94139 -8.738335,13.09478 -11.689643,23.1071 -8.171031,27.72024 0.812414,1.06513 3.301921,2.41925 5.492944,2.98777 1.534526,0.39818 1.811019,0.39014 4.372034,-0.12719 5.585932,-1.12836 11.019859,-3.21813 22.313781,-8.58138 23.462669,-11.14193 49.260259,-26.32056 82.206539,-48.3682 13.76932,-9.21442 15.83526,-10.67398 27.02889,-19.09546 4.57112,-3.43905 8.9978,-6.57485 9.83708,-6.96844 2.01492,-0.94492 5.46706,-1.03283 6.64039,-0.16911 1.03049,0.75857 1.58024,2.02476 1.58024,3.6396 0,2.43938 -3.57078,8.81167 -8.11203,14.47646 -6.14503,7.66535 -13.405,13.95534 -30.24516,26.20418 -5.12518,3.72785 -11.33437,8.3451 -13.7982,10.26055 -2.46384,1.91546 -6.43177,4.74362 -8.81763,6.2848 -2.38586,1.54119 -8.05675,5.30862 -12.60196,8.37208 -23.59152,15.90061 -38.389833,25.16688 -53.077374,33.23549 -5.547097,3.0473 -16.387025,8.47647 -19.93777,9.98581 -9.655751,4.10443 -18.211424,5.6661 -24.645616,4.49855 z m 12.20301,-5.97997 c 5.659243,-1.34938 9.81932,-3.00993 18.854396,-7.52601 16.878887,-8.4367 30.942261,-16.8854 56.387674,-33.87541 7.34276,-4.90279 15.88872,-10.58222 18.99102,-12.62096 3.10231,-2.03874 7.45795,-5.126 9.6792,-6.86059 2.22125,-1.73459 8.19117,-6.17195 13.26648,-9.86081 13.90343,-10.10535 19.29391,-14.51689 25.25036,-20.6648 3.61414,-3.7303 7.11717,-8.1915 8.92908,-11.37141 1.43187,-2.51292 1.61901,-3.0156 1.03994,-2.79339 -0.24457,0.0939 -3.92407,2.79351 -8.17669,5.99924 -11.85197,8.93433 -18.2658,13.42238 -34.00486,23.79478 -29.72137,19.58705 -53.9516,33.66778 -76.087056,44.21592 -10.644361,5.07232 -15.844477,7.14157 -21.559947,8.57922 -5.176179,1.30199 -6.575511,1.33376 -9.973702,0.22639 -5.45112,-1.77636 -8.865937,-5.40387 -9.71877,-10.3241 -1.741102,-10.04491 7.470922,-27.09604 26.963288,-49.90808 23.637149,-27.66272 42.498537,-48.19589 63.698237,-69.34418 3.96969,-3.96006 7.16918,-7.24857 7.10997,-7.30777 -0.1244,-0.12441 -10.60779,9.09882 -18.78243,16.52469 -10.4634,9.50496 -18.15234,16.81433 -27.195718,25.85319 -20.939725,20.92924 -35.243851,37.81493 -46.991126,55.47191 -8.992484,13.51634 -14.895605,24.98187 -19.166125,37.22604 -2.783519,7.98073 -3.294269,11.02867 -2.414258,14.40726 1.330953,5.10987 5.972254,9.36221 11.634073,10.6591 2.673308,0.61233 8.617522,0.36994 12.266964,-0.50023 z"
       id="path83240"
       transform="scale(0.26458333)" /><path
       style="fill:#ff708a;fill-opacity:1;stroke:#f38ba8;stroke-width:0.0034688;stroke-dasharray:none;stroke-opacity:1"
       d="m 173.47452,605.92282 c -5.9e-4,-0.0931 0.023,-0.11841 1.36977,-1.47329 7.35845,-7.40264 16.28974,-16.51744 18.50872,-18.88902 1.26822,-1.35544 6.62046,-7.37853 6.55671,-7.37853 -0.007,0 -0.12917,0.13381 -0.27228,0.29736 -3.62092,4.13826 -9.98581,10.90468 -16.43019,17.46666 -2.94894,3.00277 -5.08969,5.17433 -6.67755,6.77368 -1.03585,1.04335 -2.14704,2.16328 -2.46931,2.48873 l -0.58595,0.59173 -1.4e-4,-0.56758 -1.5e-4,-0.56758 1.43091,-1.43729 c 1.56395,-1.57093 3.20947,-3.23198 4.45024,-4.49223 0.4382,-0.44508 1.11775,-1.13523 1.51011,-1.53367 0.39237,-0.39844 1.19109,-1.21352 1.77495,-1.81129 0.58386,-0.59777 1.2794,-1.30966 1.54565,-1.58198 1.27706,-1.30619 3.63064,-3.74652 5.22977,-5.42252 7.11577,-7.45786 11.78802,-12.72201 14.46772,-16.30055 l 0.25177,-0.33621 0.006,0.74 0.006,0.74 -0.25876,0.33285 c -2.02021,2.59879 -5.02099,6.09162 -9.28102,10.80288 -1.21587,1.34465 -2.21913,2.40824 -3.80468,4.03344 -0.21383,0.21918 -0.78443,0.80608 -1.268,1.30422 -0.48356,0.49814 -1.12401,1.15569 -1.42322,1.46122 -1.1855,1.21054 -1.68009,1.71517 -2.23698,2.28239 -0.31953,0.32545 -1.2105,1.23297 -1.97994,2.01672 -0.76943,0.78374 -1.78002,1.81081 -2.24574,2.28239 -0.46572,0.47157 -1.26493,1.28114 -1.77603,1.79904 -1.30831,1.32574 -2.92178,2.9566 -4.34884,4.39573 -0.67195,0.67764 -1.40803,1.42226 -1.63572,1.65473 l -0.41399,0.42266 z m 26.51863,-27.82537 c 0.0312,-0.0332 0.0513,-0.0604 0.0446,-0.0604 -0.007,0 -0.0376,0.0272 -0.0688,0.0604 -0.0312,0.0332 -0.0513,0.0604 -0.0446,0.0604 0.007,0 0.0376,-0.0272 0.0688,-0.0604 z m 0.15699,-0.18114 c 0.024,-0.0266 0.0383,-0.0483 0.0316,-0.0483 -0.007,0 -0.0317,0.0217 -0.0558,0.0483 -0.024,0.0266 -0.0383,0.0483 -0.0316,0.0483 0.007,0 0.0318,-0.0217 0.0558,-0.0483 z"
       id="path83242"
       transform="scale(0.26458333)" /><path
       style="fill:#ff708a;fill-opacity:1;stroke:#f38ba8;stroke-width:0.00693761;stroke-dasharray:none;stroke-opacity:1"
       d="m 154.6955,613.28021 v -0.58834 l 8.70459,-10.13001 c 4.78752,-5.57151 9.05148,-10.53016 9.47546,-11.01923 0.42399,-0.48906 0.74498,-0.8732 0.71332,-0.85363 -0.11262,0.0696 -12.1583,14.02405 -17.53704,20.31596 -1.41127,1.65087 -1.35633,1.59047 -1.35633,1.49103 0,-0.0419 0.62391,-0.8021 1.38646,-1.68932 18.86854,-21.95329 21.25156,-24.67281 25.66729,-29.29167 4.09352,-4.28183 8.00156,-7.94936 11.26564,-10.57231 4.45822,-3.58255 7.8873,-5.47873 10.903,-6.02906 0.68629,-0.12524 1.99831,-0.14993 2.41523,-0.0454 1.5562,0.38999 1.86589,1.57037 0.93707,3.57151 -0.44779,0.96474 -1.39217,2.45412 -2.5009,3.94417 l -0.60987,0.81961 v -0.73547 -0.73547 l 0.32322,-0.44643 c 1.32489,-1.82989 2.16561,-3.37272 2.35962,-4.33015 0.12216,-0.60292 0.009,-0.92197 -0.39795,-1.12236 -0.21793,-0.10731 -0.28302,-0.11403 -1.07728,-0.11133 -0.7563,0.003 -0.92163,0.0189 -1.5699,0.15516 -0.84347,0.17727 -1.5377,0.39501 -2.35337,0.7381 -5.56327,2.34004 -13.42943,9.16621 -23.70997,20.57526 -1.93018,2.14207 -3.17708,3.57273 -7.55695,8.67068 -0.82171,0.95643 -2.01723,2.3476 -2.65669,3.09149 -0.63947,0.74389 -1.90004,2.21115 -2.80126,3.26056 -0.90122,1.04942 -1.96645,2.28843 -2.36717,2.75337 -0.40072,0.46493 -1.66207,1.93218 -2.80302,3.26056 -3.74912,4.36503 -4.4793,5.21435 -4.66736,5.42899 l -0.18584,0.2121 z m 19.10751,-22.81678 0.14188,-0.15699 -0.15699,0.14187 c -0.14634,0.13225 -0.1792,0.17211 -0.14188,0.17211 0.008,0 0.079,-0.0707 0.15699,-0.15699 z m 0.31094,-0.35021 c 0.0901,-0.093 0.153,-0.16907 0.13972,-0.16907 -0.0133,0 -0.0979,0.0761 -0.18802,0.16907 -0.0901,0.093 -0.153,0.16907 -0.13971,0.16907 0.0133,0 0.0979,-0.0761 0.18801,-0.16907 z m 0.33813,-0.38644 c 0.0901,-0.093 0.153,-0.16906 0.13972,-0.16906 -0.0133,0 -0.0979,0.0761 -0.18802,0.16906 -0.0901,0.093 -0.153,0.16907 -0.13971,0.16907 0.0133,0 0.0979,-0.0761 0.18801,-0.16907 z m 0.89892,-1.02647 c 0.9534,-1.07645 2.29153,-2.56795 2.89278,-3.22433 0.93591,-1.02175 2.31773,-2.51508 2.68186,-2.89828 1.18293,-1.24488 1.57303,-1.65016 2.53401,-2.6326 0.83911,-0.85785 0.89706,-0.92401 0.27504,-0.31398 -1.73442,1.70097 -5.38293,5.61902 -8.09669,8.69483 -0.42193,0.47822 -0.83302,0.94013 -0.91355,1.02647 -0.0805,0.0863 -0.13373,0.15699 -0.11824,0.15699 0.0155,0 0.35065,-0.36409 0.74479,-0.8091 z m 10.50144,-11.15836 0.94147,-0.95402 -0.95401,0.94148 c -0.88641,0.87475 -0.97583,0.96655 -0.94148,0.96655 0.007,0 0.43621,-0.4293 0.95402,-0.95401 z m 1.52113,-1.46122 c 0.21129,-0.21254 0.3733,-0.38643 0.36002,-0.38643 -0.0133,0 -0.19703,0.17389 -0.40833,0.38643 -0.21129,0.21254 -0.3733,0.38644 -0.36002,0.38644 0.0133,0 0.19703,-0.1739 0.40833,-0.38644 z m 0.84533,-0.79702 c 0.1443,-0.14613 0.2515,-0.26568 0.23822,-0.26568 -0.0133,0 -0.14222,0.11955 -0.28653,0.26568 -0.1443,0.14612 -0.2515,0.26567 -0.23822,0.26567 0.0133,0 0.14222,-0.11955 0.28653,-0.26567 z m 0.60381,-0.55551 c 0.10377,-0.10627 0.1778,-0.19322 0.16452,-0.19322 -0.0133,0 -0.10906,0.087 -0.21283,0.19322 -0.10377,0.10627 -0.1778,0.19322 -0.16452,0.19322 0.0133,0 0.10906,-0.087 0.21283,-0.19322 z m 0.53438,-0.49512 0.14188,-0.15699 -0.15699,0.14188 c -0.0863,0.078 -0.15699,0.14867 -0.15699,0.15699 0,0.0373 0.0399,0.004 0.1721,-0.14188 z m 0.50416,-0.44682 c 0.0624,-0.0664 0.10259,-0.12076 0.0893,-0.12076 -0.0133,0 -0.0752,0.0543 -0.1376,0.12076 -0.0624,0.0664 -0.10258,0.12076 -0.0893,0.12076 0.0133,0 0.0752,-0.0543 0.1376,-0.12076 z m 0.41363,-0.37436 0.14188,-0.15699 -0.15699,0.14188 c -0.0864,0.078 -0.15699,0.14867 -0.15699,0.15699 0,0.0373 0.0399,0.004 0.1721,-0.14188 z m 0.3834,-0.32605 c 0.0481,-0.0531 0.0766,-0.0966 0.0633,-0.0966 -0.0133,0 -0.0635,0.0435 -0.11158,0.0966 -0.0481,0.0531 -0.0766,0.0966 -0.0633,0.0966 0.0133,0 0.0635,-0.0435 0.11158,-0.0966 z m 0.41059,-0.36229 c 0.0624,-0.0664 0.10258,-0.12076 0.0893,-0.12076 -0.0133,0 -0.0752,0.0543 -0.13761,0.12076 -0.0624,0.0664 -0.10258,0.12076 -0.0893,0.12076 0.0133,0 0.0752,-0.0543 0.1376,-0.12076 z m 0.31398,-0.26567 c 0.0481,-0.0531 0.0766,-0.0966 0.0633,-0.0966 -0.0133,0 -0.0635,0.0435 -0.11159,0.0966 -0.0481,0.0531 -0.0766,0.0966 -0.0633,0.0966 0.0133,0 0.0635,-0.0435 0.11158,-0.0966 z m 0.32014,-0.27775 c 0.0601,-0.0766 0.0584,-0.0783 -0.0182,-0.0182 -0.0465,0.0365 -0.0845,0.0745 -0.0845,0.0845 0,0.0398 0.0397,0.0142 0.10277,-0.0663 z m 0.30782,-0.2536 c 0.0481,-0.0531 0.0766,-0.0966 0.0633,-0.0966 -0.0133,0 -0.0635,0.0435 -0.11159,0.0966 -0.0481,0.0531 -0.0766,0.0966 -0.0633,0.0966 0.0133,0 0.0635,-0.0435 0.11158,-0.0966 z m 0.28983,-0.24153 c 0.0481,-0.0531 0.0766,-0.0966 0.0633,-0.0966 -0.0133,0 -0.0635,0.0435 -0.11158,0.0966 -0.0481,0.0531 -0.0766,0.0966 -0.0633,0.0966 0.0133,0 0.0635,-0.0435 0.11159,-0.0966 z m 1.91419,-1.53367 c 0.0601,-0.0766 0.0584,-0.0783 -0.0182,-0.0182 -0.0805,0.0631 -0.10605,0.10277 -0.0663,0.10277 0.01,0 0.0481,-0.038 0.0845,-0.0845 z m 3.27855,-2.30994 c 0,-0.0133 -0.0435,-8.9e-4 -0.0966,0.0276 -0.0531,0.0284 -0.0966,0.0626 -0.0966,0.0759 0,0.0133 0.0435,8.8e-4 0.0966,-0.0276 0.0531,-0.0284 0.0966,-0.0626 0.0966,-0.0758 z m 0.77288,-0.48305 c 0,-0.0133 -0.0435,-8.8e-4 -0.0966,0.0276 -0.0531,0.0284 -0.0966,0.0626 -0.0966,0.0759 0,0.0133 0.0435,8.8e-4 0.0966,-0.0276 0.0531,-0.0284 0.0966,-0.0626 0.0966,-0.0759 z m 0.33813,-0.19322 c 0,-0.0133 -0.0435,-8.8e-4 -0.0966,0.0276 -0.0531,0.0284 -0.0966,0.0626 -0.0966,0.0759 0,0.0133 0.0435,8.9e-4 0.0966,-0.0276 0.0531,-0.0284 0.0966,-0.0626 0.0966,-0.0759 z m 9.01765,-0.0298 c -0.0154,-0.0385 -0.0269,-0.0271 -0.0292,0.0292 -0.002,0.0509 0.009,0.0795 0.0254,0.0634 0.016,-0.016 0.0178,-0.0577 0.004,-0.0926 z m -8.77613,-0.1151 c 0,-0.0133 -0.0435,-8.9e-4 -0.0966,0.0276 -0.0531,0.0284 -0.0966,0.0626 -0.0966,0.0759 0,0.0133 0.0435,8.8e-4 0.0966,-0.0276 0.0531,-0.0284 0.0966,-0.0626 0.0966,-0.0759 z m 8.82474,-0.2502 c -0.0121,-0.0465 -0.0221,-0.008 -0.0221,0.0845 0,0.093 0.01,0.13103 0.0221,0.0845 0.0121,-0.0465 0.0121,-0.12258 0,-0.16907 z m -8.29339,-0.0382 c 0,-0.0133 -0.087,0.0202 -0.19322,0.0744 -0.10627,0.0542 -0.19322,0.10944 -0.19322,0.12272 0,0.0133 0.0869,-0.0202 0.19322,-0.0744 0.10627,-0.0542 0.19322,-0.10944 0.19322,-0.12272 z m 1.04164,-0.5424 c -0.0214,-0.0214 -0.99333,0.46414 -0.99333,0.49621 0,0.0129 0.22735,-0.0897 0.50522,-0.22784 0.27787,-0.1382 0.49752,-0.25896 0.48811,-0.26837 z m 7.25175,9.3e-4 c -0.0121,-0.0465 -0.0221,-0.008 -0.0221,0.0845 0,0.093 0.01,0.13102 0.0221,0.0845 0.0121,-0.0465 0.0121,-0.12257 0,-0.16907 z m -6.49301,-0.29912 c 0.28366,-0.11803 0.50723,-0.22311 0.49683,-0.23351 -0.0233,-0.0233 -1.08959,0.42366 -1.08959,0.45665 0,0.013 0.0173,0.0164 0.0385,0.008 0.0212,-0.009 0.27059,-0.11267 0.55425,-0.23069 z m 6.4114,0.006 c 0,-0.0215 -0.0329,-0.0813 -0.0732,-0.13283 -0.0679,-0.087 -0.0691,-0.0841 -0.0164,0.0391 0.0569,0.13291 0.0896,0.16718 0.0896,0.0938 z m -5.24105,-0.44208 c 0.31882,-0.10419 0.55209,-0.19071 0.51839,-0.19227 -0.0785,-0.004 -1.12219,0.33294 -1.12219,0.36186 0,0.0297 -0.0415,0.0413 0.6038,-0.16959 z m 0.73565,-0.22429 c -0.0161,-0.016 -0.0577,-0.0178 -0.0926,-0.004 -0.0385,0.0154 -0.0271,0.0269 0.0292,0.0292 0.0509,0.002 0.0795,-0.009 0.0634,-0.0254 z m 0.19321,-0.0483 c -0.0161,-0.016 -0.0577,-0.0178 -0.0926,-0.004 -0.0385,0.0154 -0.0271,0.0269 0.0292,0.0292 0.0509,0.002 0.0795,-0.009 0.0634,-0.0254 z m 0.47198,-0.0887 c 0.1594,-0.036 0.23548,-0.0655 0.16906,-0.0657 -0.1355,-3.5e-4 -0.64465,0.12181 -0.53135,0.12749 0.0399,0.002 0.20288,-0.0258 0.36229,-0.0618 z m 0.54343,-0.1086 c -0.0465,-0.0122 -0.12258,-0.0122 -0.16907,0 -0.0465,0.0122 -0.008,0.0221 0.0845,0.0221 0.093,0 0.13103,-0.01 0.0845,-0.0221 z m 0.387,-0.0482 c -0.0462,-0.0121 -0.13314,-0.0125 -0.19322,-9.7e-4 -0.0601,0.0116 -0.0223,0.0214 0.084,0.022 0.10627,5.4e-4 0.15543,-0.009 0.10925,-0.021 z m 0.86892,-0.0506 c -0.1262,-0.01 -0.3327,-0.01 -0.4589,0 -0.12619,0.01 -0.0229,0.0181 0.22945,0.0181 0.25239,0 0.35564,-0.008 0.22945,-0.0181 z"
       id="path83244"
       transform="scale(0.26458333)" /><path
       style="fill:#ff708a;fill-opacity:1;stroke:#f38ba8;stroke-width:0.00693761;stroke-dasharray:none;stroke-opacity:1"
       d="m 137.74082,641.5697 2.4e-4,-0.54343 0.61247,-0.65211 c 6.84632,-7.28949 13.04034,-13.61556 26.63902,-27.20693 l 8.44514,-8.44059 v 0.54072 0.54072 l -9.57763,9.59053 c -8.90961,8.92161 -11.73968,11.77968 -15.95384,16.11166 -3.13872,3.22647 -5.98613,6.19983 -8.68539,9.06958 -0.7932,0.84331 -1.45075,1.53328 -1.46122,1.53328 -0.0105,0 -0.0189,-0.24454 -0.0188,-0.54343 z"
       id="path83246"
       transform="scale(0.26458333)" /><path
       style="fill:#ff708a;fill-opacity:1;stroke:#f38ba8;stroke-width:0.00693761;stroke-dasharray:none;stroke-opacity:1"
       d="m 137.74058,632.90117 v -0.68351 l 0.71586,-0.83674 c 13.29201,-15.53671 16.2127,-18.93344 16.2315,-18.87704 0.01,0.0288 -0.0144,0.0892 -0.0534,0.13416 -0.039,0.0449 -3.26155,3.80964 -7.1613,8.36598 -3.89976,4.55633 -7.14652,8.34945 -7.21503,8.42915 l -0.12455,0.14491 0.12815,-0.12076 c 0.0705,-0.0664 0.81995,-0.92696 1.66549,-1.91232 4.69784,-5.47467 12.43083,-14.46454 12.58581,-14.63144 l 0.17994,-0.19378 2.4e-4,0.57965 2.4e-4,0.57966 -1.58101,1.83996 c -0.86955,1.01199 -2.09353,2.43577 -2.71994,3.16396 -2.81561,3.27309 -3.35373,3.89884 -4.8979,5.69555 -0.90192,1.04941 -2.03281,2.36451 -2.5131,2.92243 -1.01667,1.18099 -3.24363,3.77268 -4.3167,5.02367 -0.41019,0.47822 -0.78598,0.91236 -0.83507,0.96475 -0.0871,0.093 -0.0893,0.0787 -0.0893,-0.58824 z m 0.87565,-1.49959 c 0.0601,-0.0766 0.0584,-0.0783 -0.0182,-0.0182 -0.0465,0.0365 -0.0845,0.0745 -0.0845,0.0845 0,0.0397 0.0397,0.0142 0.10277,-0.0663 z m 0.24152,-0.28983 c 0.0601,-0.0766 0.0584,-0.0783 -0.0182,-0.0182 -0.0465,0.0365 -0.0845,0.0745 -0.0845,0.0845 0,0.0398 0.0397,0.0142 0.10277,-0.0663 z m 0.30782,-0.3502 c 0.0481,-0.0531 0.0766,-0.0966 0.0633,-0.0966 -0.0133,0 -0.0635,0.0435 -0.11158,0.0966 -0.0481,0.0531 -0.0766,0.0966 -0.0633,0.0966 0.0133,0 0.0635,-0.0435 0.11158,-0.0966 z m 0.26568,-0.31398 c 0.0624,-0.0664 0.10258,-0.12077 0.0893,-0.12077 -0.0133,0 -0.0752,0.0543 -0.1376,0.12077 -0.0624,0.0664 -0.10258,0.12076 -0.0893,0.12076 0.0133,0 0.0752,-0.0543 0.13761,-0.12076 z m 0.31701,-0.37436 0.14188,-0.15699 -0.15699,0.14187 c -0.14634,0.13225 -0.17919,0.17211 -0.14188,0.17211 0.008,0 0.079,-0.0707 0.15699,-0.15699 z m 0.28983,-0.33814 0.14188,-0.15699 -0.15699,0.14188 c -0.14634,0.13225 -0.1792,0.1721 -0.14188,0.1721 0.008,0 0.079,-0.0706 0.15699,-0.15699 z"
       id="path83248"
       transform="scale(0.26458333)" /><path
       style="fill:#ff708a;fill-opacity:1;stroke:none;stroke-width:1.7348;stroke-dasharray:none;stroke-opacity:1"
       d="m 283.69607,696.16725 c -0.1415,-4.78135 39.03762,-52.42973 58.68698,-71.3732 37.10883,-35.77575 97.6776,-73.08529 155.7423,-95.93514 28.11721,-11.06482 71.2145,-21.99483 125.58372,-31.8496 25.92991,-4.69997 54.35655,-9.88294 63.17029,-11.51771 34.29493,-6.36102 50.27646,-21.03689 47.59999,-43.71118 -0.47128,-3.99255 -2.01882,-9.55725 -3.43897,-12.36598 -8.30988,-16.43497 -21.343,-21.04691 -50.98503,-18.04175 -9.55267,0.96847 -19.16257,1.31058 -21.3553,0.76024 -5.77396,-1.44918 -7.63907,-5.83847 -5.63826,-13.2689 4.03866,-14.99841 31.94694,-48.00083 50.87936,-60.16643 13.63376,-8.76079 16.68924,-8.00763 4.62811,1.14081 -13.43391,10.1897 -22.54547,20.4339 -27.18151,30.56034 -6.66932,14.56772 -2.05048,21.02722 12.39514,17.33474 9.70401,-2.48047 38.02282,-2.45827 46.89822,0.0368 4.51378,1.2689 8.54631,4.14389 13.42792,9.57342 11.3896,12.66797 12.61536,27.0096 3.89422,45.56301 -6.8796,14.63571 -36.34054,41.30017 -57.34867,51.90504 -17.98274,9.07767 -50.89637,17.28925 -107.86046,26.90996 -70.10122,11.83947 -95.04706,19.44549 -146.04617,44.52969 -49.27097,24.2342 -76.82529,41.50018 -103.56389,64.89479 -15.799,13.82314 -36.25939,35.75581 -46.92679,50.30354 -10.45842,14.26272 -12.50374,16.65915 -12.5612,14.71754 z"
       id="path86154"
       transform="scale(0.26458333)" /><path
       style="fill:#ff708a;fill-opacity:1;stroke:#f38ba8;stroke-width:0.00693761;stroke-dasharray:none;stroke-opacity:1"
       d="m 611.70538,508.8218 v -9.43831 l 0.10868,-0.0263 c 0.12471,-0.0301 3.07416,-0.58696 5.90524,-1.11482 1.0627,-0.19814 5.59488,-1.02569 10.07151,-1.83901 15.33431,-2.78594 29.92559,-5.43947 34.0306,-6.18871 2.25824,-0.41217 5.64922,-1.03085 7.53552,-1.37485 1.88629,-0.344 3.4894,-0.63798 3.56246,-0.6533 l 0.13284,-0.0279 v 8.32823 8.32823 l -0.73665,0.20589 c -14.1836,3.96414 -30.59688,7.64678 -52.2052,11.71323 -3.50702,0.65999 -8.23111,1.52587 -8.32485,1.52587 -0.0744,0 -0.0802,-0.67812 -0.0802,-9.43832 z"
       id="path86168"
       transform="scale(0.26458333)" /><path
       style="fill:#ff708a;fill-opacity:1;stroke:none;stroke-width:0.111002;stroke-dasharray:none;stroke-opacity:1"
       d="m 117.09036,762.82509 c 0,-0.46661 0.57254,-1.96144 1.27232,-3.32185 1.63216,-3.17303 13.19181,-20.68377 17.53345,-26.55992 32.62932,-44.16198 44.09519,-60.11577 65.17486,-90.68528 8.06081,-11.68971 15.87857,-22.99299 17.3728,-25.11839 1.49422,-2.12541 4.40578,-6.29892 6.47014,-9.27449 22.53226,-32.47811 46.63883,-64.21807 64.86343,-85.40254 19.50981,-22.67842 53.4496,-54.10116 58.43481,-54.10116 4.90928,0 1.68509,18.15891 -6.28862,35.41796 -1.66014,3.59336 -3.01843,6.8077 -3.01843,7.14297 0,0.82024 2.26126,3.03862 3.09736,3.03862 1.21859,0 12.34301,-11.75094 28.16919,-29.75564 24.11316,-27.4324 41.17627,-43.03138 54.67414,-49.9827 7.91165,-4.07445 22.54502,-7.59311 31.58738,-7.59533 18.56661,-0.005 31.00006,9.86737 31.00006,24.61347 0,6.46272 -1.0436,10.47101 -4.55177,17.48247 -7.92563,15.84028 -20.75102,28.93414 -46.14386,47.10977 -9.14412,6.54515 -20.54513,12.52532 -20.54513,10.77652 0,-0.65978 4.45951,-4.17529 14.99845,-11.82353 14.62035,-10.61016 19.62528,-14.7239 25.53329,-20.9867 11.55095,-12.24462 12.85654,-23.18887 3.78076,-31.69285 -7.2108,-6.75651 -11.74715,-8.52986 -21.7149,-8.48876 -11.8339,0.0488 -20.94303,2.7006 -32.33696,9.41375 -18.42461,10.85555 -33.56644,25.10408 -54.94382,51.7024 -18.12707,22.55419 -34.36027,38.49146 -36.19025,35.5305 -0.58633,-0.9487 0.25855,-5.13089 1.46422,-7.24796 0.47729,-0.83811 2.64297,-4.04777 4.81262,-7.13257 11.62995,-16.5355 15.37661,-33.56634 8.05181,-36.60037 -4.87508,-2.01932 -12.81849,3.63371 -30.56837,21.75439 -21.33272,21.77837 -39.09377,45.30445 -80.74252,106.95059 -3.61319,5.34803 -8.67604,12.74632 -11.2508,16.44066 -2.57475,3.69433 -11.25675,16.28128 -19.29333,27.971 -16.20231,23.56729 -31.39937,44.85304 -40.83294,57.19265 -10.03516,13.12652 -16.77249,21.77415 -20.04402,25.72726 -3.23428,3.90811 -9.82537,8.94268 -9.82537,7.50506 z"
       id="path86176"
       transform="scale(0.26458333)" /><path
       style="fill:#ffcd83;fill-opacity:1;stroke:#ffcd83;stroke-width:7.93701;stroke-dasharray:none;stroke-opacity:1"
       d="m 117.50185,762.36589 c 0,-2.08221 12.60138,-21.15762 25.87416,-39.16715 25.7112,-34.88693 37.32539,-51.12783 60.7534,-84.95551 42.05574,-60.72425 62.42803,-88.22108 84.2164,-113.66831 20.23497,-23.63298 54.86315,-56.0034 59.90949,-56.0034 1.31562,0 1.85713,1.51055 1.85713,5.18051 0,7.0586 -2.76424,16.88876 -8.41884,29.93902 l -3.24232,7.48297 1.37321,1.43332 c 0.75526,0.78833 1.73514,1.43333 2.1775,1.43333 1.07438,0 11.80708,-11.09267 24.09107,-24.89908 32.57383,-36.61089 47.88222,-50.32049 63.18436,-56.58544 4.61493,-1.88943 14.81712,-4.45411 20.56266,-5.16916 17.57537,-2.1873 31.76938,4.19582 36.00298,16.19073 1.39953,3.96524 1.58818,11.45939 0.40354,16.03104 -1.48375,5.72598 -6.24591,14.68059 -11.63843,21.88454 -9.94803,13.28971 -36.26187,34.81095 -52.61826,43.03479 -4.73416,2.38028 -6.35091,2.5848 -3.91306,0.49499 0.92134,-0.78982 6.09047,-4.6984 11.48694,-8.68573 18.23607,-13.47425 23.06077,-17.49564 28.44113,-23.70568 6.14988,-7.09823 8.51546,-12.16874 8.49191,-18.20207 -0.0179,-4.59193 -1.46843,-7.76734 -5.43506,-11.89816 -3.87947,-4.04007 -7.81522,-6.63485 -12.05631,-7.94856 -2.84733,-0.88197 -4.50989,-1.05222 -10.10853,-1.03515 -10.9926,0.0335 -17.83154,1.72284 -28.03552,6.92514 -19.19838,9.78792 -35.3462,24.43886 -59.30456,53.80711 -15.729,19.28067 -28.94869,33.10694 -33.90176,35.45732 -2.32853,1.10496 -2.72281,0.44495 -1.82581,-3.05636 0.55405,-2.16269 1.96252,-4.72574 5.61885,-10.22491 8.13777,-12.23929 11.91252,-21.48987 11.91252,-29.19339 0,-4.17216 -0.62043,-5.9125 -2.68741,-7.53839 -4.09358,-3.22001 -11.13808,0.95381 -25.73494,15.2478 -24.19363,23.69164 -39.21626,43.07039 -81.68741,105.37441 -42.57138,62.45105 -64.18029,93.12532 -80.94899,114.9087 -14.5076,18.84609 -16.94794,21.75998 -20.76198,24.79086 -3.87934,3.08277 -4.03806,3.17396 -4.03806,2.31987 z"
       id="path86385"
       transform="scale(0.26458333)" /><path
       style="fill:#caff8e;fill-opacity:1;stroke:#caff8e;stroke-width:7.59766;stroke-dasharray:none;stroke-opacity:1"
       d="m 502.59119,499.7426 c -0.4416,-0.71452 6.60983,-10.49887 9.01202,-12.5048 1.70771,-1.42601 15.50936,-18.38128 18.17513,-22.32808 4.28531,-6.34458 9.19773,-17.32748 10.47864,-23.42749 1.72579,-8.2187 1.33811,-18.53581 -0.92368,-24.58097 -6.14327,-16.41936 -20.53905,-19.41618 -39.17618,-8.15546 -10.30979,6.22927 -11.51794,4.65363 -2.86825,-3.74071 20.12169,-19.52767 41.39505,-30.89789 55.15252,-29.47799 7.10044,0.73283 10.33528,2.74638 12.95317,8.0628 2.0573,4.17796 2.24865,5.77213 2.21492,18.45308 -0.0448,16.86223 -1.76735,24.03754 -9.53657,39.72567 -6.56287,13.25219 -15.22185,24.8252 -28.69557,38.35256 -17.09894,17.16701 -24.81143,22.81657 -26.78615,19.62139 z"
       id="path90646"
       transform="scale(0.26458333)" /><path
       style="fill:#ffcd83;fill-opacity:1;stroke:#c8a9ff;stroke-width:7.93701;stroke-dasharray:none;stroke-opacity:1"
       d="m 109.5,672.14668 c 0,-0.98307 8.34805,-13.14687 14.71302,-21.43809 4.9038,-6.38786 42.14057,-50.0303 54.71922,-64.13231 11.39946,-12.78003 24.78672,-22.69065 27.2811,-20.19627 1.76406,1.76406 -9.05436,13.74615 -49.31542,54.61999 -25.80701,26.19979 -31.72087,32.73537 -39.04278,43.14735 -4.79817,6.82314 -8.35514,10.22863 -8.35514,7.99933 z"
       id="path93539"
       transform="scale(0.26458333)" /><path
       style="fill:#ffcd83;fill-opacity:1;stroke:#ffcd83;stroke-width:7.93701;stroke-dasharray:none;stroke-opacity:1"
       d="m 107.16667,675.33333 c -2.56235,-2.56235 2.21113,-11.19837 15.42326,-27.90325 6.57604,-8.31448 49.56201,-58.52159 57.05901,-66.64426 C 189.51867,570.09241 199.80375,563 205.44111,563 c 2.41126,0 3.15113,0.51932 3.66675,2.57374 1.26707,5.04839 -0.323,6.91682 -45.89213,53.92626 -17.5939,18.15 -34.93028,36.825 -38.52528,41.5 -3.595,4.675 -7.89681,9.9625 -9.55958,11.75 -2.79936,3.00937 -6.37753,4.17001 -7.9642,2.58333 z M 190.5,580.58272 c 0,-1.2884 -6.37038,4.87077 -10.25736,9.91728 -2.26126,2.93582 -1.30663,2.27839 3.58822,-2.47111 3.66803,-3.55911 6.66914,-6.90989 6.66914,-7.44617 z"
       id="path93679"
       transform="scale(0.26458333)" /><path
       style="fill:#ffcd83;fill-opacity:1;stroke:none;stroke-width:7.93701;stroke-dasharray:none;stroke-opacity:1"
       d="m 334.35495,497.69337 c -2.19864,-2.61664 -3.35823,-3.14792 -6.8708,-3.14792 h -4.22576 l 4.91868,-4.52272 c 9.59358,-8.82131 16.3797,-14.2993 16.97566,-13.70333 1.1967,1.19669 -6.13683,24.83017 -7.63382,24.60125 -0.2854,-0.0437 -1.70918,-1.49592 -3.16396,-3.22728 z"
       id="path95997"
       transform="scale(0.26458333)" /><path
       style="fill:#ffcd83;fill-opacity:1;stroke:none;stroke-width:7.93701;stroke-dasharray:none;stroke-opacity:1"
       d="m 470.521,474.08786 c -0.0154,-3.97179 -0.70048,-6.57159 -2.57414,-9.76876 -3.34066,-5.70039 -11.28541,-11.89671 -17.69369,-13.79976 -11.24189,-3.33848 -26.97993,-1.12403 -40.63251,5.71727 -11.20481,5.61473 -11.16999,5.60856 -7.12066,1.26241 5.49891,-5.90198 17.71166,-15.32468 23.93222,-18.4648 16.99735,-8.58024 36.70365,-9.82191 47.47438,-2.99132 11.22305,7.11745 11.50812,20.25494 0.80193,36.9571 l -4.16654,6.5 -0.021,-5.41214 z"
       id="path95999"
       transform="scale(0.26458333)" /><path
       style="fill:#caff8e;fill-opacity:1;stroke:#caff8e;stroke-width:7.93701;stroke-dasharray:none;stroke-opacity:1"
       d="m 104.7,677.8 c -1.78736,-1.78736 -1.45198,-7.38614 0.69426,-11.58984 2.73035,-5.34775 12.09163,-18.16504 20.92172,-28.6456 23.0044,-27.3043 49.70758,-57.87522 55.52444,-63.56671 15.95727,-15.61336 30.65958,-18.85958 30.65958,-6.76952 0,5.21995 -4.16481,10.24577 -35.85847,43.27167 -34.21469,35.65289 -42.32161,44.39893 -51.34304,55.39068 -3.88634,4.73513 -8.24336,9.61958 -9.68228,10.85435 -2.88301,2.47398 -8.91432,3.05686 -10.91621,1.05497 z"
       id="path98772"
       transform="scale(0.26458333)" /><path
       style="fill:#89b4fa;fill-opacity:1;stroke:#89b4fa;stroke-width:11.2246;stroke-dasharray:none;stroke-opacity:1"
       d="m 586.36917,456.95693 c -7.815,-7.30031 -9.01436,-15.73648 -5.00823,-35.22736 2.69707,-13.12196 7.43648,-22.3889 20.06142,-39.22595 10.1939,-13.59491 33.8004,-38.37315 35.21287,-36.96069 0.47017,0.47018 -2.62468,5.16956 -6.87745,10.44307 -19.82999,24.58954 -25.19661,35.40878 -26.15132,52.72172 -0.85165,15.44408 2.45818,23.00325 12.22965,27.93072 7.76439,3.91535 13.39951,4.01046 22.9354,0.38711 4.04553,-1.53718 7.59165,-2.55873 7.88027,-2.27011 1.14623,1.14623 -20.70432,16.97577 -29.65419,21.48285 -7.62206,3.83841 -11.19272,4.79533 -17.89328,4.79533 -7.27333,0 -8.9433,-0.53458 -12.73514,-4.07669 z"
       id="path102404"
       transform="scale(0.26458333)" /><path
       style="fill:#c8a9ff;fill-opacity:1;stroke:#c8a9ff;stroke-width:3.02362;stroke-dasharray:none;stroke-opacity:1"
       d="m 498.63486,504.92742 c -4.99722,-3.93081 -3.26912,-7.82463 11.91266,-26.84216 18.5707,-23.26268 22.31793,-30.55121 23.17952,-45.08526 0.17597,-11.67447 -3.05875,-24.84898 -14.60693,-23.78321 -2.54106,0.24545 -8.89511,2.38377 -14.12011,4.75181 -11.50172,5.21274 -15.40867,5.61286 -18.24405,1.86845 -1.47011,-1.94143 -1.83145,-3.43163 -1.33363,-5.5 11.94581,-19.64508 57.80368,-51.97803 76.79092,-39.95077 19.07818,12.08487 10.37024,49.46004 3.62963,65.94 -6.57591,16.07728 -15.50505,31.40034 -34.30946,50.2141 -19.99291,20.00283 -26.33685,23.54847 -32.89855,18.38704 z"
       id="path109166"
       transform="scale(0.26458333)" /></g></svg>
