/* XPM */
static char *right_pushed_2x[] = {
/* columns rows colors chars-per-pixel */
"16 24 4 1 ",
"  c gray45",
". c gray60",
"X c gray90",
"o c None",
/* pixels */
"    oooooooooooo",
"    oooooooooooo",
"    ..  oooooooo",
"    ..  oooooooo",
"    ......  oooo",
"    ......  oooo",
"    ..........XX",
"    ..........XX",
"    ........XXXX",
"    ........XXXX",
"    ....XXXXoooo",
"    ....XXXXoooo",
"    XXXXoooooooo",
"    XXXXoooooooo",
"....oooooooooooo",
"....oooooooooooo",
"oooooooooooooooo",
"oooooooooooooooo",
"oooooooooooooooo",
"oooooooooooooooo",
"oooooooooooooooo",
"oooooooooooooooo",
"oooooooooooooooo",
"oooooooooooooooo"
};
